<mxfile host="Electron" modified="2024-05-08T19:32:11.569Z" agent="Mozilla/5.0 (Windows NT 10.0; Win64; x64) AppleWebKit/537.36 (KHTML, like Gecko) draw.io/24.2.5 Chrome/120.0.6099.109 Electron/28.1.0 Safari/537.36" etag="zAL5cfF1OOWQFmoLGVQr" version="24.2.5" type="device">
  <diagram name="Page-1" id="9f46799a-70d6-7492-0946-bef42562c5a5">
    <mxGraphModel dx="1275" dy="678" grid="1" gridSize="10" guides="1" tooltips="1" connect="1" arrows="1" fold="1" page="1" pageScale="1" pageWidth="1100" pageHeight="850" background="none" math="0" shadow="0">
      <root>
        <mxCell id="0" />
        <mxCell id="1" parent="0" />
        <mxCell id="ZdtIVEOOOOVH1O2CUehS-3" value="Users" style="swimlane;fontStyle=0;childLayout=stackLayout;horizontal=1;startSize=26;fillColor=none;horizontalStack=0;resizeParent=1;resizeParentMax=0;resizeLast=0;collapsible=1;marginBottom=0;whiteSpace=wrap;html=1;" parent="1" vertex="1">
          <mxGeometry x="470" y="1" width="150" height="110" as="geometry">
            <mxRectangle x="410" y="230" width="80" height="30" as="alternateBounds" />
          </mxGeometry>
        </mxCell>
        <mxCell id="ZdtIVEOOOOVH1O2CUehS-4" value="&lt;span style=&quot;color: rgb(102, 102, 102); font-family: Roboto, Helvetica, sans-serif; font-size: 14px; background-color: rgb(255, 255, 255);&quot;&gt;🗝&lt;/span&gt;Bond(INT)&lt;div&gt;FirstName(VARCHAR255)&lt;/div&gt;&lt;div&gt;LastName(&lt;span style=&quot;background-color: initial;&quot;&gt;VARCHAR255&lt;/span&gt;&lt;span style=&quot;background-color: initial;&quot;&gt;)&lt;/span&gt;&lt;/div&gt;&lt;div&gt;&lt;div&gt;Email(&lt;span style=&quot;background-color: initial;&quot;&gt;VARCHAR255&lt;/span&gt;&lt;span style=&quot;background-color: initial;&quot;&gt;)&lt;/span&gt;&lt;/div&gt;&lt;div&gt;&lt;div&gt;Phone(&lt;span style=&quot;background-color: initial;&quot;&gt;VARCHAR31&lt;/span&gt;&lt;span style=&quot;background-color: initial;&quot;&gt;)&lt;/span&gt;&lt;/div&gt;&lt;/div&gt;&lt;/div&gt;" style="text;strokeColor=none;fillColor=none;align=left;verticalAlign=top;spacingLeft=4;spacingRight=4;overflow=hidden;rotatable=0;points=[[0,0.5],[1,0.5]];portConstraint=eastwest;whiteSpace=wrap;html=1;" parent="ZdtIVEOOOOVH1O2CUehS-3" vertex="1">
          <mxGeometry y="26" width="150" height="84" as="geometry" />
        </mxCell>
        <mxCell id="ZdtIVEOOOOVH1O2CUehS-7" value="Attendance" style="swimlane;fontStyle=0;childLayout=stackLayout;horizontal=1;startSize=26;fillColor=none;horizontalStack=0;resizeParent=1;resizeParentMax=0;resizeLast=0;collapsible=1;marginBottom=0;whiteSpace=wrap;html=1;" parent="1" vertex="1">
          <mxGeometry x="720" y="690" width="140" height="90" as="geometry">
            <mxRectangle x="410" y="230" width="80" height="30" as="alternateBounds" />
          </mxGeometry>
        </mxCell>
        <mxCell id="ZdtIVEOOOOVH1O2CUehS-8" value="&lt;span style=&quot;color: rgb(102, 102, 102); font-family: Roboto, Helvetica, sans-serif; font-size: 14px; background-color: rgb(255, 255, 255);&quot;&gt;🗝EventID(INT)&lt;br&gt;Bond(INT)&lt;/span&gt;&lt;div&gt;&lt;span style=&quot;color: rgb(102, 102, 102); font-family: Roboto, Helvetica, sans-serif; font-size: 14px; background-color: rgb(255, 255, 255);&quot;&gt;Status(CHAR)&lt;br&gt;&lt;/span&gt;&lt;div&gt;&lt;div&gt;&lt;div&gt;&lt;br&gt;&lt;/div&gt;&lt;/div&gt;&lt;/div&gt;&lt;/div&gt;" style="text;strokeColor=none;fillColor=none;align=left;verticalAlign=top;spacingLeft=4;spacingRight=4;overflow=hidden;rotatable=0;points=[[0,0.5],[1,0.5]];portConstraint=eastwest;whiteSpace=wrap;html=1;" parent="ZdtIVEOOOOVH1O2CUehS-7" vertex="1">
          <mxGeometry y="26" width="140" height="64" as="geometry" />
        </mxCell>
        <mxCell id="ZdtIVEOOOOVH1O2CUehS-9" value="Events" style="swimlane;fontStyle=0;childLayout=stackLayout;horizontal=1;startSize=26;fillColor=none;horizontalStack=0;resizeParent=1;resizeParentMax=0;resizeLast=0;collapsible=1;marginBottom=0;whiteSpace=wrap;html=1;" parent="1" vertex="1">
          <mxGeometry x="230" y="490" width="180" height="160" as="geometry">
            <mxRectangle x="410" y="230" width="80" height="30" as="alternateBounds" />
          </mxGeometry>
        </mxCell>
        <mxCell id="ZdtIVEOOOOVH1O2CUehS-10" value="&lt;span style=&quot;color: rgb(102, 102, 102); font-family: Roboto, Helvetica, sans-serif; font-size: 14px; background-color: rgb(255, 255, 255);&quot;&gt;🗝EventID(INT)&lt;br&gt;Type(INT)&lt;br&gt;StartTime(DATE)&lt;br&gt;EndTime(DATE)&lt;/span&gt;&lt;div&gt;&lt;span style=&quot;color: rgb(102, 102, 102); font-family: Roboto, Helvetica, sans-serif; font-size: 14px; background-color: rgb(255, 255, 255);&quot;&gt;Location(VARCHAR255)&lt;/span&gt;&lt;/div&gt;&lt;div&gt;&lt;span style=&quot;color: rgb(102, 102, 102); font-family: Roboto, Helvetica, sans-serif; font-size: 14px; background-color: rgb(255, 255, 255);&quot;&gt;IsMandatory(BOOL)&lt;/span&gt;&lt;/div&gt;&lt;div&gt;&lt;span style=&quot;color: rgb(102, 102, 102); font-family: Roboto, Helvetica, sans-serif; font-size: 14px; background-color: rgb(255, 255, 255);&quot;&gt;FolderURL(VARCHAR255)&lt;/span&gt;&lt;/div&gt;" style="text;strokeColor=none;fillColor=none;align=left;verticalAlign=top;spacingLeft=4;spacingRight=4;overflow=hidden;rotatable=0;points=[[0,0.5],[1,0.5]];portConstraint=eastwest;whiteSpace=wrap;html=1;" parent="ZdtIVEOOOOVH1O2CUehS-9" vertex="1">
          <mxGeometry y="26" width="180" height="134" as="geometry" />
        </mxCell>
        <mxCell id="ZdtIVEOOOOVH1O2CUehS-11" value="Officers" style="swimlane;fontStyle=0;childLayout=stackLayout;horizontal=1;startSize=26;fillColor=none;horizontalStack=0;resizeParent=1;resizeParentMax=0;resizeLast=0;collapsible=1;marginBottom=0;whiteSpace=wrap;html=1;" parent="1" vertex="1">
          <mxGeometry x="550" y="161" width="140" height="100" as="geometry">
            <mxRectangle x="410" y="230" width="80" height="30" as="alternateBounds" />
          </mxGeometry>
        </mxCell>
        <mxCell id="ZdtIVEOOOOVH1O2CUehS-12" value="&lt;span style=&quot;color: rgb(102, 102, 102); font-family: Roboto, Helvetica, sans-serif; font-size: 14px; background-color: rgb(255, 255, 255);&quot;&gt;🗝&lt;/span&gt;Bond(INT)&lt;div&gt;PositionID(INT)&lt;br&gt;StartDate(DATE)&lt;br&gt;EndDate(DATE)&lt;br&gt;&lt;br&gt;&lt;/div&gt;&lt;div&gt;&lt;div&gt;&lt;div&gt;&lt;br&gt;&lt;/div&gt;&lt;/div&gt;&lt;/div&gt;" style="text;strokeColor=none;fillColor=none;align=left;verticalAlign=top;spacingLeft=4;spacingRight=4;overflow=hidden;rotatable=0;points=[[0,0.5],[1,0.5]];portConstraint=eastwest;whiteSpace=wrap;html=1;" parent="ZdtIVEOOOOVH1O2CUehS-11" vertex="1">
          <mxGeometry y="26" width="140" height="74" as="geometry" />
        </mxCell>
        <mxCell id="ZdtIVEOOOOVH1O2CUehS-13" value="PositionNames" style="swimlane;fontStyle=0;childLayout=stackLayout;horizontal=1;startSize=26;fillColor=none;horizontalStack=0;resizeParent=1;resizeParentMax=0;resizeLast=0;collapsible=1;marginBottom=0;whiteSpace=wrap;html=1;" parent="1" vertex="1">
          <mxGeometry x="720" y="161" width="180" height="80" as="geometry">
            <mxRectangle x="410" y="230" width="80" height="30" as="alternateBounds" />
          </mxGeometry>
        </mxCell>
        <mxCell id="ZdtIVEOOOOVH1O2CUehS-14" value="&lt;span style=&quot;color: rgb(102, 102, 102); font-family: Roboto, Helvetica, sans-serif; font-size: 14px; background-color: rgb(255, 255, 255);&quot;&gt;🗝PositionID(INT)&lt;/span&gt;&lt;div&gt;&lt;font face=&quot;Roboto, Helvetica, sans-serif&quot; color=&quot;#666666&quot;&gt;&lt;span style=&quot;font-size: 14px;&quot;&gt;PostionTitle(VARCHAR255)&lt;br&gt;&lt;/span&gt;&lt;/font&gt;&lt;div&gt;&lt;div&gt;&lt;div&gt;&lt;br&gt;&lt;/div&gt;&lt;/div&gt;&lt;/div&gt;&lt;/div&gt;" style="text;strokeColor=none;fillColor=none;align=left;verticalAlign=top;spacingLeft=4;spacingRight=4;overflow=hidden;rotatable=0;points=[[0,0.5],[1,0.5]];portConstraint=eastwest;whiteSpace=wrap;html=1;" parent="ZdtIVEOOOOVH1O2CUehS-13" vertex="1">
          <mxGeometry y="26" width="180" height="54" as="geometry" />
        </mxCell>
        <mxCell id="ZdtIVEOOOOVH1O2CUehS-15" value="EventTypes" style="swimlane;fontStyle=0;childLayout=stackLayout;horizontal=1;startSize=26;fillColor=none;horizontalStack=0;resizeParent=1;resizeParentMax=0;resizeLast=0;collapsible=1;marginBottom=0;whiteSpace=wrap;html=1;" parent="1" vertex="1">
          <mxGeometry y="490" width="180" height="80" as="geometry">
            <mxRectangle x="410" y="230" width="80" height="30" as="alternateBounds" />
          </mxGeometry>
        </mxCell>
        <mxCell id="ZdtIVEOOOOVH1O2CUehS-16" value="&lt;span style=&quot;color: rgb(102, 102, 102); font-family: Roboto, Helvetica, sans-serif; font-size: 14px; background-color: rgb(255, 255, 255);&quot;&gt;🗝Type(INT)&lt;br&gt;EventTitle(VARCHAR255)&lt;/span&gt;" style="text;strokeColor=none;fillColor=none;align=left;verticalAlign=top;spacingLeft=4;spacingRight=4;overflow=hidden;rotatable=0;points=[[0,0.5],[1,0.5]];portConstraint=eastwest;whiteSpace=wrap;html=1;" parent="ZdtIVEOOOOVH1O2CUehS-15" vertex="1">
          <mxGeometry y="26" width="180" height="54" as="geometry" />
        </mxCell>
        <mxCell id="ZdtIVEOOOOVH1O2CUehS-17" value="Transactions" style="swimlane;fontStyle=0;childLayout=stackLayout;horizontal=1;startSize=26;fillColor=none;horizontalStack=0;resizeParent=1;resizeParentMax=0;resizeLast=0;collapsible=1;marginBottom=0;whiteSpace=wrap;html=1;" parent="1" vertex="1">
          <mxGeometry width="190" height="190" as="geometry">
            <mxRectangle x="410" y="230" width="80" height="30" as="alternateBounds" />
          </mxGeometry>
        </mxCell>
        <mxCell id="ZdtIVEOOOOVH1O2CUehS-18" value="&lt;span style=&quot;color: rgb(102, 102, 102); font-family: Roboto, Helvetica, sans-serif; font-size: 14px; background-color: rgb(255, 255, 255);&quot;&gt;🗝TransactionID(INT)&lt;/span&gt;&lt;div&gt;&lt;font face=&quot;Roboto, Helvetica, sans-serif&quot; color=&quot;#666666&quot;&gt;&lt;span style=&quot;font-size: 14px;&quot;&gt;Bond(INT)&lt;br&gt;EventID(INT)&lt;/span&gt;&lt;/font&gt;&lt;span style=&quot;color: rgb(102, 102, 102); font-family: Roboto, Helvetica, sans-serif; font-size: 14px;&quot;&gt;&quot;O&quot;&lt;/span&gt;&lt;font face=&quot;Roboto, Helvetica, sans-serif&quot; color=&quot;#666666&quot;&gt;&lt;span style=&quot;font-size: 14px;&quot;&gt;&lt;br&gt;Amount(FLOAT)&lt;br&gt;Date(DATE)&lt;/span&gt;&lt;/font&gt;&lt;/div&gt;&lt;div&gt;&lt;font face=&quot;Roboto, Helvetica, sans-serif&quot; color=&quot;#666666&quot;&gt;&lt;span style=&quot;font-size: 14px;&quot;&gt;Description(VARCHAR511)&lt;/span&gt;&lt;/font&gt;&lt;/div&gt;&lt;div&gt;&lt;font face=&quot;Roboto, Helvetica, sans-serif&quot; color=&quot;#666666&quot;&gt;&lt;span style=&quot;font-size: 14px;&quot;&gt;RecipetPath(VARCHAR255)&lt;/span&gt;&lt;/font&gt;&lt;/div&gt;&lt;div&gt;&lt;font face=&quot;Roboto, Helvetica, sans-serif&quot; color=&quot;#666666&quot;&gt;&lt;span style=&quot;font-size: 14px;&quot;&gt;PaymentMethod(CHAR)&lt;/span&gt;&lt;/font&gt;&lt;/div&gt;&lt;div&gt;&lt;font face=&quot;Roboto, Helvetica, sans-serif&quot; color=&quot;#666666&quot;&gt;&lt;span style=&quot;font-size: 14px;&quot;&gt;Status(CHAR)&lt;br&gt;&lt;/span&gt;&lt;/font&gt;&lt;div&gt;&lt;div&gt;&lt;div&gt;&lt;span style=&quot;background-color: initial;&quot;&gt;&lt;br&gt;&lt;/span&gt;&lt;/div&gt;&lt;div&gt;&lt;br&gt;&lt;/div&gt;&lt;/div&gt;&lt;/div&gt;&lt;/div&gt;" style="text;strokeColor=none;fillColor=none;align=left;verticalAlign=top;spacingLeft=4;spacingRight=4;overflow=hidden;rotatable=0;points=[[0,0.5],[1,0.5]];portConstraint=eastwest;whiteSpace=wrap;html=1;" parent="ZdtIVEOOOOVH1O2CUehS-17" vertex="1">
          <mxGeometry y="26" width="190" height="164" as="geometry" />
        </mxCell>
        <mxCell id="ZdtIVEOOOOVH1O2CUehS-19" value="Passwords" style="swimlane;fontStyle=0;childLayout=stackLayout;horizontal=1;startSize=26;fillColor=none;horizontalStack=0;resizeParent=1;resizeParentMax=0;resizeLast=0;collapsible=1;marginBottom=0;whiteSpace=wrap;html=1;" parent="1" vertex="1">
          <mxGeometry x="340" y="161" width="150" height="70" as="geometry">
            <mxRectangle x="410" y="230" width="80" height="30" as="alternateBounds" />
          </mxGeometry>
        </mxCell>
        <mxCell id="ZdtIVEOOOOVH1O2CUehS-20" value="&lt;span style=&quot;color: rgb(102, 102, 102); font-family: Roboto, Helvetica, sans-serif; font-size: 14px; background-color: rgb(255, 255, 255);&quot;&gt;🗝&lt;/span&gt;Bond(INT)&lt;div&gt;Password(CHAR255)&lt;/div&gt;" style="text;strokeColor=none;fillColor=none;align=left;verticalAlign=top;spacingLeft=4;spacingRight=4;overflow=hidden;rotatable=0;points=[[0,0.5],[1,0.5]];portConstraint=eastwest;whiteSpace=wrap;html=1;" parent="ZdtIVEOOOOVH1O2CUehS-19" vertex="1">
          <mxGeometry y="26" width="150" height="44" as="geometry" />
        </mxCell>
        <mxCell id="ZdtIVEOOOOVH1O2CUehS-26" value="" style="fontSize=12;html=1;endArrow=ERmandOne;startArrow=ERmandOne;rounded=0;exitX=0;exitY=0;exitDx=0;exitDy=0;entryX=1;entryY=0;entryDx=0;entryDy=0;" parent="1" source="ZdtIVEOOOOVH1O2CUehS-13" target="ZdtIVEOOOOVH1O2CUehS-11" edge="1">
          <mxGeometry width="100" height="100" relative="1" as="geometry">
            <mxPoint x="670" y="306" as="sourcePoint" />
            <mxPoint x="660" y="271" as="targetPoint" />
          </mxGeometry>
        </mxCell>
        <mxCell id="ZdtIVEOOOOVH1O2CUehS-27" value="" style="fontSize=12;html=1;endArrow=ERmandOne;startArrow=ERmandOne;rounded=0;entryX=0;entryY=0;entryDx=0;entryDy=0;exitX=1;exitY=0;exitDx=0;exitDy=0;" parent="1" source="ZdtIVEOOOOVH1O2CUehS-15" target="ZdtIVEOOOOVH1O2CUehS-9" edge="1">
          <mxGeometry width="100" height="100" relative="1" as="geometry">
            <mxPoint x="319.5" y="694" as="sourcePoint" />
            <mxPoint x="320.5" y="650" as="targetPoint" />
          </mxGeometry>
        </mxCell>
        <mxCell id="ZdtIVEOOOOVH1O2CUehS-28" value="" style="fontSize=12;html=1;endArrow=ERmandOne;startArrow=ERmandOne;rounded=0;entryX=0;entryY=1;entryDx=0;entryDy=0;exitX=0.5;exitY=0;exitDx=0;exitDy=0;edgeStyle=elbowEdgeStyle;elbow=vertical;" parent="1" source="ZdtIVEOOOOVH1O2CUehS-19" target="ZdtIVEOOOOVH1O2CUehS-3" edge="1">
          <mxGeometry width="100" height="100" relative="1" as="geometry">
            <mxPoint x="470" y="181" as="sourcePoint" />
            <mxPoint x="470.6" y="136" as="targetPoint" />
          </mxGeometry>
        </mxCell>
        <mxCell id="ZdtIVEOOOOVH1O2CUehS-29" value="" style="fontSize=12;html=1;endArrow=ERzeroToMany;startArrow=ERzeroToOne;rounded=0;exitX=1;exitY=1;exitDx=0;exitDy=0;entryX=0.5;entryY=0;entryDx=0;entryDy=0;edgeStyle=elbowEdgeStyle;elbow=vertical;" parent="1" source="ZdtIVEOOOOVH1O2CUehS-3" target="ZdtIVEOOOOVH1O2CUehS-11" edge="1">
          <mxGeometry width="100" height="100" relative="1" as="geometry">
            <mxPoint x="610" y="156" as="sourcePoint" />
            <mxPoint x="720" y="166" as="targetPoint" />
          </mxGeometry>
        </mxCell>
        <mxCell id="ZdtIVEOOOOVH1O2CUehS-32" value="" style="fontSize=12;html=1;endArrow=ERzeroToMany;startArrow=ERzeroToOne;rounded=0;entryX=0.998;entryY=0.22;entryDx=0;entryDy=0;exitX=-0.023;exitY=0.4;exitDx=0;exitDy=0;entryPerimeter=0;exitPerimeter=0;" parent="1" source="ZdtIVEOOOOVH1O2CUehS-4" target="ZdtIVEOOOOVH1O2CUehS-18" edge="1">
          <mxGeometry width="100" height="100" relative="1" as="geometry">
            <mxPoint x="550" y="39" as="sourcePoint" />
            <mxPoint x="721" y="39" as="targetPoint" />
          </mxGeometry>
        </mxCell>
        <mxCell id="q_xdzxdiWz7Ilm2gV4a6-21" value="A user can have many transactions" style="edgeLabel;html=1;align=center;verticalAlign=middle;resizable=0;points=[];" parent="ZdtIVEOOOOVH1O2CUehS-32" vertex="1" connectable="0">
          <mxGeometry x="0.014" y="1" relative="1" as="geometry">
            <mxPoint as="offset" />
          </mxGeometry>
        </mxCell>
        <mxCell id="q_xdzxdiWz7Ilm2gV4a6-1" value="Forms" style="swimlane;fontStyle=0;childLayout=stackLayout;horizontal=1;startSize=26;fillColor=none;horizontalStack=0;resizeParent=1;resizeParentMax=0;resizeLast=0;collapsible=1;marginBottom=0;whiteSpace=wrap;html=1;" parent="1" vertex="1">
          <mxGeometry x="690" y="500" width="180" height="120" as="geometry">
            <mxRectangle x="410" y="230" width="80" height="30" as="alternateBounds" />
          </mxGeometry>
        </mxCell>
        <mxCell id="q_xdzxdiWz7Ilm2gV4a6-2" value="&lt;span style=&quot;color: rgb(102, 102, 102); font-family: Roboto, Helvetica, sans-serif; font-size: 14px; background-color: rgb(255, 255, 255);&quot;&gt;🗝FormID(INT)&lt;/span&gt;&lt;div&gt;&lt;font face=&quot;Roboto, Helvetica, sans-serif&quot; color=&quot;#666666&quot;&gt;&lt;span style=&quot;font-size: 14px;&quot;&gt;Bond(INT)&lt;br&gt;&lt;/span&gt;&lt;/font&gt;&lt;div&gt;&lt;div&gt;&lt;div&gt;&lt;font face=&quot;Roboto, Helvetica, sans-serif&quot; color=&quot;#666666&quot;&gt;&lt;span style=&quot;font-size: 14px;&quot;&gt;PositionID(INT)&lt;/span&gt;&lt;/font&gt;&lt;/div&gt;&lt;div&gt;&lt;font face=&quot;Roboto, Helvetica, sans-serif&quot; color=&quot;#666666&quot;&gt;&lt;span style=&quot;font-size: 14px;&quot;&gt;Date(DATE)&lt;/span&gt;&lt;/font&gt;&lt;/div&gt;&lt;div&gt;&lt;font face=&quot;Roboto, Helvetica, sans-serif&quot; color=&quot;#666666&quot;&gt;&lt;span style=&quot;font-size: 14px;&quot;&gt;EventID(INT)&lt;/span&gt;&lt;/font&gt;&lt;/div&gt;&lt;div&gt;&lt;font face=&quot;Roboto, Helvetica, sans-serif&quot; color=&quot;#666666&quot;&gt;&lt;span style=&quot;font-size: 14px;&quot;&gt;&lt;br&gt;&lt;/span&gt;&lt;/font&gt;&lt;div&gt;&lt;div&gt;&lt;div&gt;&lt;br&gt;&lt;/div&gt;&lt;/div&gt;&lt;/div&gt;&lt;/div&gt;&lt;/div&gt;&lt;/div&gt;&lt;/div&gt;" style="text;strokeColor=none;fillColor=none;align=left;verticalAlign=top;spacingLeft=4;spacingRight=4;overflow=hidden;rotatable=0;points=[[0,0.5],[1,0.5]];portConstraint=eastwest;whiteSpace=wrap;html=1;" parent="q_xdzxdiWz7Ilm2gV4a6-1" vertex="1">
          <mxGeometry y="26" width="180" height="94" as="geometry" />
        </mxCell>
        <mxCell id="q_xdzxdiWz7Ilm2gV4a6-4" value="" style="fontSize=12;html=1;endArrow=ERzeroToMany;startArrow=ERzeroToOne;rounded=0;entryX=0.5;entryY=0;entryDx=0;entryDy=0;exitX=0.437;exitY=1.032;exitDx=0;exitDy=0;exitPerimeter=0;edgeStyle=elbowEdgeStyle;elbow=vertical;" parent="1" source="ZdtIVEOOOOVH1O2CUehS-12" target="ZdtIVEOOOOVH1O2CUehS-9" edge="1">
          <mxGeometry width="100" height="100" relative="1" as="geometry">
            <mxPoint x="570" y="420" as="sourcePoint" />
            <mxPoint x="560" y="360" as="targetPoint" />
          </mxGeometry>
        </mxCell>
        <mxCell id="q_xdzxdiWz7Ilm2gV4a6-15" value="An officer can create many events" style="edgeLabel;html=1;align=center;verticalAlign=middle;resizable=0;points=[];" parent="q_xdzxdiWz7Ilm2gV4a6-4" vertex="1" connectable="0">
          <mxGeometry x="-0.0915" y="-1" relative="1" as="geometry">
            <mxPoint as="offset" />
          </mxGeometry>
        </mxCell>
        <mxCell id="q_xdzxdiWz7Ilm2gV4a6-5" value="" style="edgeStyle=elbowEdgeStyle;fontSize=12;html=1;endArrow=ERzeroToMany;startArrow=ERzeroToOne;rounded=0;exitX=0.714;exitY=0.991;exitDx=0;exitDy=0;exitPerimeter=0;entryX=0.5;entryY=0;entryDx=0;entryDy=0;elbow=vertical;" parent="1" source="ZdtIVEOOOOVH1O2CUehS-12" target="q_xdzxdiWz7Ilm2gV4a6-1" edge="1">
          <mxGeometry width="100" height="100" relative="1" as="geometry">
            <mxPoint x="670" y="360" as="sourcePoint" />
            <mxPoint x="790" y="430" as="targetPoint" />
          </mxGeometry>
        </mxCell>
        <mxCell id="q_xdzxdiWz7Ilm2gV4a6-17" value="An officer can create many forms" style="edgeLabel;html=1;align=center;verticalAlign=middle;resizable=0;points=[];" parent="q_xdzxdiWz7Ilm2gV4a6-5" vertex="1" connectable="0">
          <mxGeometry x="-0.0684" y="-1" relative="1" as="geometry">
            <mxPoint as="offset" />
          </mxGeometry>
        </mxCell>
        <mxCell id="q_xdzxdiWz7Ilm2gV4a6-6" value="" style="edgeStyle=elbowEdgeStyle;fontSize=12;html=1;endArrow=ERzeroToOne;endFill=1;rounded=0;exitX=1.004;exitY=0.387;exitDx=0;exitDy=0;entryX=0;entryY=0.5;entryDx=0;entryDy=0;exitPerimeter=0;" parent="1" source="ZdtIVEOOOOVH1O2CUehS-10" target="q_xdzxdiWz7Ilm2gV4a6-2" edge="1">
          <mxGeometry width="100" height="100" relative="1" as="geometry">
            <mxPoint x="350" y="630" as="sourcePoint" />
            <mxPoint x="450" y="530" as="targetPoint" />
          </mxGeometry>
        </mxCell>
        <mxCell id="q_xdzxdiWz7Ilm2gV4a6-18" value="An event can have one form" style="edgeLabel;html=1;align=center;verticalAlign=middle;resizable=0;points=[];" parent="q_xdzxdiWz7Ilm2gV4a6-6" vertex="1" connectable="0">
          <mxGeometry x="-0.1526" y="-2" relative="1" as="geometry">
            <mxPoint as="offset" />
          </mxGeometry>
        </mxCell>
        <mxCell id="q_xdzxdiWz7Ilm2gV4a6-19" value="" style="edgeStyle=elbowEdgeStyle;fontSize=12;html=1;endArrow=ERzeroToOne;endFill=1;rounded=0;exitX=0.538;exitY=1.034;exitDx=0;exitDy=0;entryX=0.5;entryY=0;entryDx=0;entryDy=0;exitPerimeter=0;elbow=vertical;" parent="1" source="q_xdzxdiWz7Ilm2gV4a6-2" target="ZdtIVEOOOOVH1O2CUehS-7" edge="1">
          <mxGeometry width="100" height="100" relative="1" as="geometry">
            <mxPoint x="431" y="714.58" as="sourcePoint" />
            <mxPoint x="710" y="714.58" as="targetPoint" />
          </mxGeometry>
        </mxCell>
        <mxCell id="q_xdzxdiWz7Ilm2gV4a6-20" value="A form can have one attendance" style="edgeLabel;html=1;align=center;verticalAlign=middle;resizable=0;points=[];" parent="q_xdzxdiWz7Ilm2gV4a6-19" vertex="1" connectable="0">
          <mxGeometry x="-0.1526" y="-2" relative="1" as="geometry">
            <mxPoint as="offset" />
          </mxGeometry>
        </mxCell>
        <mxCell id="4Deq1_qk7j7xIx3tUvQZ-1" value="single forms for officers&lt;div&gt;forms brothers fill in&lt;/div&gt;&lt;div&gt;&lt;br&gt;&lt;/div&gt;" style="text;html=1;align=center;verticalAlign=middle;resizable=0;points=[];autosize=1;strokeColor=none;fillColor=none;" vertex="1" parent="1">
          <mxGeometry x="785" y="313" width="150" height="60" as="geometry" />
        </mxCell>
      </root>
    </mxGraphModel>
  </diagram>
</mxfile>
